# xmcd
#
# Track frame offsets: 
#        150
#        14484
#        24098
#        33009
#        41831
#        51771
#        61126
#        75168
#        86488
#        96569
#        106482
#        114009
#        124874
#        134407
#        147290
#        158483
#        168698
#        182499
#        193575
#        204763
#        214688
#        227878
#        238441
#        249222
#        261728
#
# Disc length: 3679 seconds
#
# Revision: 0
# Processed by: cddbd v1.5.2PL0 Copyright (c) Steve Scherf et al.
# Submitted via: ExactAudioCopy v0.99pb5
#
DISCID=4f0e5d19
DTITLE=Elvis Presley  - 75  (UK Boxset) CD2
DYEAR=1900
DGENRE=
TTITLE0=Are You Lonesome Tonight
TTITLE1=Wooden Heart
TTITLE2=Surrender
TTITLE3=Wild In The Country
TTITLE4=(Maries The Name) His Latest Flame
TTITLE5=Rock A Hula Baby
TTITLE6=Cant Help Falling in Love
TTITLE7=Good Luck Charm
TTITLE8=Shes Not You
TTITLE9=Return To Sender
TTITLE10=One Broken Heart For Sale
TTITLE11=(Youre The) Devil In Disguise
TTITLE12=Bossa Nova Baby
TTITLE13=Kiss Me Quick
TTITLE14=Viva Las Vegas
TTITLE15=Kissin Cousins
TTITLE16=Such A Night
TTITLE17=Aint That Living You Baby
TTITLE18=Crying In The Chapel
TTITLE19=Tell Me Why
TTITLE20=Love Letters
TTITLE21=All That I Am
TTITLE22=Guitar Man
TTITLE23=Us Male
TTITLE24=If I Can Dream
EXTD=
EXTT0=
EXTT1=
EXTT2=
EXTT3=
EXTT4=
EXTT5=
EXTT6=
EXTT7=
EXTT8=
EXTT9=
EXTT10=
EXTT11=
EXTT12=
EXTT13=
EXTT14=
EXTT15=
EXTT16=
EXTT17=
EXTT18=
EXTT19=
EXTT20=
EXTT21=
EXTT22=
EXTT23=
EXTT24=
PLAYORDER=
